<?xml version='1.0' encoding='utf-8'?>
<svg xmlns="http://www.w3.org/2000/svg" style="isolation:isolate" viewBox="390 1812.5 267.5 307" width="267.5" height="307"><path d=" M 445.5 2071.5 L 445.5 1997 C 445.5 1991.056 447.849 1985.36 452.035 1981.146 C 450.646 1981.451 449.278 1981.834 447.93 1982.27 C 445.23 1983.15 442.6 1984.23 440.07 1985.5 C 437.42 1986.84 434.86 1988.36 432.42 1990.06 C 423.644 1996.107 416.653 2004.388 412.152 2014.021 C 415.956 2014.654 419.5 2016.443 422.29 2019.17 C 425.84 2022.64 427.89 2027.37 428 2032.34 L 423 2032.45 C 422.92 2028.79 421.41 2025.3 418.79 2022.74 C 416.18 2020.18 412.66 2018.75 409 2018.75 C 405.29 2018.75 401.73 2020.23 399.1 2022.85 C 396.48 2025.47 395 2029.04 395 2032.75 L 390 2032.75 C 390 2027.71 392.01 2022.88 395.57 2019.32 C 398.598 2016.284 402.544 2014.383 406.759 2013.894 C 411.564 2002.602 419.481 1992.912 429.58 1985.94 C 432.21 1984.12 434.96 1982.48 437.82 1981.04 C 440.58 1979.65 443.45 1978.47 446.39 1977.52 C 449.33 1976.57 452.34 1975.84 455.4 1975.35 C 458.56 1974.85 461.75 1974.56 464.95 1974.5 L 467.45 1974.45 L 467.451 1974.507 C 467.634 1974.502 467.817 1974.5 468 1974.5 L 578.5 1974.5 C 579.018 1974.5 579.534 1974.518 580.048 1974.553 L 580.048 1974.553 L 580.05 1974.45 L 582.55 1974.5 C 585.75 1974.56 588.94 1974.85 592.11 1975.35 C 595.16 1975.84 598.17 1976.57 601.11 1977.52 C 604.06 1978.47 606.92 1979.65 609.68 1981.04 C 612.54 1982.48 615.29 1984.12 617.92 1985.94 C 620.49 1987.71 622.94 1989.64 625.25 1991.73 C 627.48 1993.76 629.55 1995.95 631.46 1998.28 C 633.36 2000.61 635.08 2003.09 636.61 2005.68 C 638.175 2008.328 639.556 2011.072 640.752 2013.895 C 644.963 2014.386 648.906 2016.286 651.94 2019.32 C 655.5 2022.88 657.5 2027.71 657.5 2032.75 L 652.5 2032.75 C 652.5 2029.04 651.02 2025.47 648.4 2022.85 C 645.77 2020.23 642.21 2018.75 638.5 2018.75 C 634.84 2018.75 631.32 2020.18 628.71 2022.74 C 626.09 2025.3 624.58 2028.79 624.5 2032.45 L 619.5 2032.34 C 619.61 2027.37 621.66 2022.64 625.21 2019.17 C 628.002 2016.441 631.548 2014.652 635.355 2014.02 C 634.433 2012.041 633.42 2010.108 632.31 2008.22 C 630.9 2005.85 629.32 2003.58 627.58 2001.44 C 625.83 1999.3 623.93 1997.29 621.89 1995.43 C 619.74 1993.49 617.47 1991.7 615.08 1990.06 C 612.64 1988.36 610.08 1986.84 607.43 1985.5 C 604.9 1984.23 602.27 1983.15 599.58 1982.27 C 597.791 1981.694 595.976 1981.209 594.138 1980.827 C 594.231 1980.912 594.321 1981.001 594.41 1981.09 C 598.63 1985.31 601 1991.03 601 1997 L 601 2071.5 L 626.5 2071.5 C 632.86 2071.5 638.97 2074.03 643.47 2078.53 C 647.97 2083.03 650.5 2089.14 650.5 2095.5 C 650.5 2101.86 647.97 2107.97 643.47 2112.47 C 638.97 2116.97 632.86 2119.5 626.5 2119.5 L 427.5 2119.5 C 421.14 2119.5 415.03 2116.97 410.53 2112.47 C 406.03 2107.97 403.5 2101.86 403.5 2095.5 C 403.5 2089.14 406.03 2083.03 410.53 2078.53 C 415.03 2074.03 421.14 2071.5 427.5 2071.5 L 427.5 2071.5 L 445.5 2071.5 Z M 457.5 2095.5 C 457.5 2092.98 458.5 2090.56 460.28 2088.78 C 462.06 2087 464.48 2086 467 2086 C 469.52 2086 471.94 2087 473.72 2088.78 C 475.5 2090.56 476.5 2092.98 476.5 2095.5 C 476.5 2098.02 475.5 2100.44 473.72 2102.22 C 471.94 2104 469.52 2105 467 2105 C 464.48 2105 462.06 2104 460.28 2102.22 C 458.5 2100.44 457.5 2098.02 457.5 2095.5 L 457.5 2095.5 Z M 452.5 2095.5 C 452.5 2091.66 454.03 2087.97 456.75 2085.25 C 459.47 2082.53 463.16 2081 467 2081 C 470.84 2081 474.53 2082.53 477.25 2085.25 C 479.97 2087.97 481.5 2091.66 481.5 2095.5 C 481.5 2099.34 479.97 2103.03 477.25 2105.75 C 474.53 2108.47 470.84 2110 467 2110 C 463.16 2110 459.47 2108.47 456.75 2105.75 C 454.03 2103.03 452.5 2099.34 452.5 2095.5 L 452.5 2095.5 Z M 517.5 2095.5 C 517.5 2092.98 518.5 2090.56 520.28 2088.78 C 522.06 2087 524.48 2086 527 2086 C 529.52 2086 531.94 2087 533.72 2088.78 C 535.5 2090.56 536.5 2092.98 536.5 2095.5 C 536.5 2098.02 535.5 2100.44 533.72 2102.22 C 531.94 2104 529.52 2105 527 2105 C 524.48 2105 522.06 2104 520.28 2102.22 C 518.5 2100.44 517.5 2098.02 517.5 2095.5 L 517.5 2095.5 Z M 512.5 2095.5 C 512.5 2091.66 514.03 2087.97 516.75 2085.25 C 519.47 2082.53 523.16 2081 527 2081 C 530.84 2081 534.53 2082.53 537.25 2085.25 C 539.97 2087.97 541.5 2091.66 541.5 2095.5 C 541.5 2099.34 539.97 2103.03 537.25 2105.75 C 534.53 2108.47 530.84 2110 527 2110 C 523.16 2110 519.47 2108.47 516.75 2105.75 C 514.03 2103.03 512.5 2099.34 512.5 2095.5 L 512.5 2095.5 Z M 577.5 2095.5 C 577.5 2092.98 578.5 2090.56 580.28 2088.78 C 582.06 2087 584.48 2086 587 2086 C 589.52 2086 591.94 2087 593.72 2088.78 C 595.5 2090.56 596.5 2092.98 596.5 2095.5 C 596.5 2098.02 595.5 2100.44 593.72 2102.22 C 591.94 2104 589.52 2105 587 2105 C 584.48 2105 582.06 2104 580.28 2102.22 C 578.5 2100.44 577.5 2098.02 577.5 2095.5 L 577.5 2095.5 Z M 572.5 2095.5 C 572.5 2091.66 574.03 2087.97 576.75 2085.25 C 579.47 2082.53 583.16 2081 587 2081 C 590.84 2081 594.53 2082.53 597.25 2085.25 C 599.97 2087.97 601.5 2091.66 601.5 2095.5 C 601.5 2099.34 599.97 2103.03 597.25 2105.75 C 594.53 2108.47 590.84 2110 587 2110 C 583.16 2110 579.47 2108.47 576.75 2105.75 C 574.03 2103.03 572.5 2099.34 572.5 2095.5 L 572.5 2095.5 Z M 479.07 1864.5 L 565.93 1864.5 C 573.5 1864.5 580.77 1867.51 586.13 1872.87 C 591.49 1878.23 594.5 1885.5 594.5 1893.07 L 594.5 1933.93 C 594.5 1941.5 591.49 1948.77 586.13 1954.13 C 580.77 1959.49 573.5 1962.5 565.93 1962.5 L 479.07 1962.5 C 471.5 1962.5 464.23 1959.49 458.87 1954.13 C 453.51 1948.77 450.5 1941.5 450.5 1933.93 L 450.5 1893.07 C 450.5 1885.5 453.51 1878.23 458.87 1872.87 C 464.23 1867.51 471.5 1864.5 479.07 1864.5 L 479.07 1864.5 Z M 438.31 1893 C 436.5 1893 434.77 1893.72 433.49 1894.99 C 432.22 1896.27 431.5 1898 431.5 1899.81 L 431.5 1927.19 C 431.5 1929 432.22 1930.73 433.49 1932.01 C 434.77 1933.28 436.5 1934 438.31 1934 L 445.5 1934 L 445.5 1933.93 L 445.5 1893.07 L 445.5 1893 L 438.31 1893 L 438.31 1893 Z M 606.69 1934 L 599.5 1934 L 599.5 1933.93 L 599.5 1893.07 L 599.5 1893 L 606.69 1893 C 608.5 1893 610.23 1893.72 611.51 1894.99 C 612.78 1896.27 613.5 1898 613.5 1899.81 L 613.5 1927.19 C 613.5 1929 612.78 1930.73 611.51 1932.01 C 610.23 1933.28 608.5 1934 606.69 1934 L 606.69 1934 Z M 526.25 1859.5 L 565.93 1859.5 C 574.83 1859.5 583.37 1863.04 589.67 1869.33 C 594.753 1874.421 598.04 1880.975 599.115 1888 L 606.69 1888 C 609.82 1888 612.83 1889.25 615.04 1891.46 C 617.25 1893.67 618.5 1896.68 618.5 1899.81 L 618.5 1927.19 C 618.5 1930.32 617.25 1933.33 615.04 1935.54 C 612.83 1937.75 609.82 1939 606.69 1939 L 599.115 1939 C 598.04 1946.025 594.753 1952.579 589.67 1957.67 C 583.37 1963.96 574.83 1967.5 565.93 1967.5 L 479.07 1967.5 C 470.17 1967.5 461.63 1963.96 455.33 1957.67 C 450.247 1952.579 446.96 1946.025 445.885 1939 L 438.31 1939 C 435.18 1939 432.17 1937.75 429.96 1935.54 C 427.75 1933.33 426.5 1930.32 426.5 1927.19 L 426.5 1899.81 C 426.5 1896.68 427.75 1893.67 429.96 1891.46 C 432.17 1889.25 435.18 1888 438.31 1888 L 445.885 1888 C 446.96 1880.975 450.247 1874.421 455.33 1869.33 C 461.63 1863.04 470.17 1859.5 479.07 1859.5 L 518.75 1859.5 L 518.75 1836.927 C 513.681 1835.332 510 1830.593 510 1825 C 510 1818.101 515.601 1812.5 522.5 1812.5 C 529.399 1812.5 535 1818.101 535 1825 C 535 1830.593 531.319 1835.332 526.25 1836.927 L 526.25 1859.5 L 526.25 1859.5 Z M 485.5 1895.5 C 485.5 1892.32 486.77 1889.26 489.01 1887.01 C 491.26 1884.77 494.32 1883.5 497.5 1883.5 C 500.68 1883.5 503.74 1884.77 505.99 1887.01 C 508.23 1889.26 509.5 1892.32 509.5 1895.5 C 509.5 1898.68 508.23 1901.74 505.99 1903.99 C 503.74 1906.23 500.68 1907.5 497.5 1907.5 C 494.32 1907.5 491.26 1906.23 489.01 1903.99 C 486.77 1901.74 485.5 1898.68 485.5 1895.5 L 485.5 1895.5 Z M 518.94 2047.66 L 534.5 2026.93 C 534.9 2026.4 535.07 2025.73 534.98 2025.08 C 534.89 2024.42 534.54 2023.83 534.01 2023.43 C 533.48 2023.03 532.81 2022.86 532.15 2022.96 C 531.5 2023.05 530.9 2023.4 530.51 2023.93 L 512.698 2047.66 L 485.97 2047.66 C 485.84 2047.66 485.73 2047.61 485.64 2047.52 C 485.55 2047.43 485.5 2047.31 485.5 2047.19 C 485.5 2041.72 486.38 2036.28 488.09 2031.09 C 488.94 2028.52 489.99 2026.03 491.25 2023.65 C 492.48 2021.3 493.93 2019.07 495.57 2016.99 C 497.17 2014.95 498.98 2013.07 500.97 2011.39 C 502.94 2009.72 505.1 2008.28 507.39 2007.09 C 509.75 2005.88 512.24 2004.95 514.81 2004.33 C 517.58 2003.67 520.41 2003.34 523.25 2003.34 C 526.1 2003.34 528.93 2003.66 531.7 2004.3 C 534.28 2004.91 536.77 2005.81 539.13 2007 C 541.42 2008.16 543.57 2009.57 545.55 2011.21 C 547.53 2012.86 549.34 2014.7 550.94 2016.72 C 552.58 2018.78 554.02 2020.99 555.25 2023.32 C 556.51 2025.71 557.57 2028.2 558.41 2030.77 C 560.14 2036.07 561.01 2041.61 561 2047.19 C 561 2047.31 560.95 2047.43 560.86 2047.52 C 560.78 2047.61 560.66 2047.66 560.53 2047.66 L 518.94 2047.66 L 518.94 2047.66 Z M 535.5 1895.5 C 535.5 1892.32 536.77 1889.26 539.01 1887.01 C 541.26 1884.77 544.32 1883.5 547.5 1883.5 C 550.68 1883.5 553.74 1884.77 555.99 1887.01 C 558.23 1889.26 559.5 1892.32 559.5 1895.5 C 559.5 1898.68 558.23 1901.74 555.99 1903.99 C 553.74 1906.23 550.68 1907.5 547.5 1907.5 C 544.32 1907.5 541.26 1906.23 539.01 1903.99 C 536.77 1901.74 535.5 1898.68 535.5 1895.5 L 535.5 1895.5 Z M 530.5 1895.5 C 530.5 1890.99 532.29 1886.67 535.48 1883.48 C 538.67 1880.29 542.99 1878.5 547.5 1878.5 C 552.01 1878.5 556.33 1880.29 559.52 1883.48 C 562.71 1886.67 564.5 1890.99 564.5 1895.5 C 564.5 1900.01 562.71 1904.33 559.52 1907.52 C 556.33 1910.71 552.01 1912.5 547.5 1912.5 C 542.99 1912.5 538.67 1910.71 535.48 1907.52 C 532.29 1904.33 530.5 1900.01 530.5 1895.5 L 530.5 1895.5 Z M 535 1932.5 L 510 1932.5 L 510 1943.5 L 535 1943.5 L 535 1932.5 L 535 1932.5 Z M 540 1932.5 L 557.5 1932.5 C 558.96 1932.5 560.36 1933.08 561.39 1934.11 C 562.42 1935.14 563 1936.54 563 1938 C 563 1939.46 562.42 1940.86 561.39 1941.89 C 560.36 1942.92 558.96 1943.5 557.5 1943.5 L 540 1943.5 L 540 1932.5 L 540 1932.5 Z M 505 1932.5 L 487.5 1932.5 C 486.04 1932.5 484.64 1933.08 483.61 1934.11 C 482.58 1935.14 482 1936.54 482 1938 C 482 1939.46 482.58 1940.86 483.61 1941.89 C 484.64 1942.92 486.04 1943.5 487.5 1943.5 L 505 1943.5 L 505 1932.5 L 505 1932.5 Z M 487.5 1927.5 L 557.5 1927.5 C 560.28 1927.5 562.96 1928.61 564.92 1930.58 C 566.89 1932.54 568 1935.22 568 1938 C 568 1940.78 566.89 1943.46 564.92 1945.42 C 562.96 1947.39 560.28 1948.5 557.5 1948.5 L 487.5 1948.5 C 484.72 1948.5 482.04 1947.39 480.08 1945.42 C 478.11 1943.46 477 1940.78 477 1938 C 477 1935.22 478.11 1932.54 480.08 1930.58 C 482.04 1928.61 484.72 1927.5 487.5 1927.5 L 487.5 1927.5 Z M 427.5 2076.5 L 445.5 2076.5 L 601 2076.5 L 626.5 2076.5 C 631.54 2076.5 636.37 2078.5 639.94 2082.06 C 643.5 2085.63 645.5 2090.46 645.5 2095.5 C 645.5 2100.54 643.5 2105.37 639.94 2108.94 C 636.37 2112.5 631.54 2114.5 626.5 2114.5 L 427.5 2114.5 C 422.46 2114.5 417.63 2112.5 414.06 2108.94 C 410.5 2105.37 408.5 2100.54 408.5 2095.5 C 408.5 2090.46 410.5 2085.63 414.06 2082.06 C 417.63 2078.5 422.46 2076.5 427.5 2076.5 L 427.5 2076.5 Z M 468 1979.5 L 578.5 1979.5 C 583.14 1979.5 587.59 1981.35 590.87 1984.63 C 594.15 1987.91 596 1992.36 596 1997 L 596 2071.5 L 450.5 2071.5 L 450.5 1997 C 450.5 1992.36 452.35 1987.91 455.63 1984.63 C 458.91 1981.35 463.36 1979.5 468 1979.5 L 468 1979.5 Z M 480.5 2047.19 C 480.5 2041.18 481.46 2035.22 483.34 2029.52 C 484.27 2026.7 485.44 2023.95 486.83 2021.32 C 488.2 2018.7 489.81 2016.22 491.63 2013.9 C 493.45 2011.59 495.5 2009.47 497.74 2007.57 C 500 2005.66 502.47 2004.01 505.1 2002.65 C 507.81 2001.25 510.68 2000.18 513.64 1999.47 C 516.79 1998.71 520.01 1998.34 523.25 1998.34 C 526.48 1998.34 529.7 1998.7 532.84 1999.43 C 535.8 2000.13 538.67 2001.17 541.38 2002.53 C 544.01 2003.86 546.48 2005.48 548.74 2007.36 C 550.99 2009.23 553.04 2011.32 554.86 2013.61 C 556.69 2015.91 558.3 2018.38 559.67 2020.99 C 561.07 2023.63 562.23 2026.38 563.16 2029.21 C 565.05 2035.02 566.01 2041.09 566 2047.19 C 566 2048.64 565.42 2050.03 564.4 2051.06 C 563.37 2052.08 561.98 2052.66 560.53 2052.66 L 485.97 2052.66 C 484.52 2052.66 483.13 2052.08 482.1 2051.05 C 481.08 2050.03 480.5 2048.64 480.5 2047.19 L 480.5 2047.19 Z M 480.5 1895.5 C 480.5 1890.99 482.29 1886.67 485.48 1883.48 C 488.67 1880.29 492.99 1878.5 497.5 1878.5 C 502.01 1878.5 506.33 1880.29 509.52 1883.48 C 512.71 1886.67 514.5 1890.99 514.5 1895.5 C 514.5 1900.01 512.71 1904.33 509.52 1907.52 C 506.33 1910.71 502.01 1912.5 497.5 1912.5 C 492.99 1912.5 488.67 1910.71 485.48 1907.52 C 482.29 1904.33 480.5 1900.01 480.5 1895.5 L 480.5 1895.5 Z " fill-rule="evenodd" fill="rgb(0,0,0)"/></svg>